<?xml version="1.0" encoding="UTF-8" standalone="no"?>
<!DOCTYPE svg PUBLIC "-//W3C//DTD SVG 1.1//EN" "http://www.w3.org/Graphics/SVG/1.1/DTD/svg11.dtd">
<svg width="100%" height="100%" viewBox="0 0 4828 1709" version="1.1" xmlns="http://www.w3.org/2000/svg" xmlns:xlink="http://www.w3.org/1999/xlink" xml:space="preserve" xmlns:serif="http://www.serif.com/" style="fill-rule:evenodd;clip-rule:evenodd;stroke-linejoin:round;stroke-miterlimit:2;">
    <g transform="matrix(1,0,0,1,-66.610264,-1626.241338)">
        <g transform="matrix(0.859709,-0.144448,0.144448,0.859709,-1362.983201,90.598727)">
            <path d="M1476.697,3225.364L1813.034,3225.364L1743.196,3643.272L1632.574,3643.272L1625.869,3559.467C1582.663,3625.393 1513.757,3658.356 1419.15,3658.356C1349.872,3658.356 1293.35,3643.458 1249.585,3613.66C1205.82,3583.863 1171.926,3545.406 1147.902,3498.289C1123.877,3451.172 1111.865,3395.767 1111.865,3332.076C1111.865,3203.947 1148.181,3093.697 1220.812,3001.325C1293.443,2908.953 1390.284,2862.768 1511.336,2862.768C1682.298,2862.768 1789.382,2944.524 1832.588,3108.037L1623.076,3142.118C1608.55,3074.329 1570.372,3040.434 1508.542,3040.434C1452.672,3040.434 1412.632,3075.074 1388.422,3144.352C1364.212,3213.631 1352.106,3281.42 1352.106,3347.719C1352.106,3436.366 1387.118,3480.69 1457.142,3480.69C1511.895,3480.69 1550.817,3449.216 1573.91,3386.27L1449.32,3386.27L1476.697,3225.364ZM2437.102,3643.272L2216.415,3643.272C2215.298,3632.464 2214.739,3623.705 2214.739,3616.995C2214.739,3597.988 2216.043,3575.579 2218.65,3549.768C2174.327,3620.67 2112.497,3656.122 2033.162,3656.122C1979.527,3656.122 1936.134,3640.664 1902.985,3609.75C1869.835,3578.835 1853.26,3540.098 1853.26,3493.54C1853.26,3458.901 1862.2,3427.148 1880.078,3398.282C1897.956,3369.415 1923.284,3346.416 1956.061,3329.282C1988.838,3312.149 2022.36,3300.882 2056.627,3295.481C2090.894,3290.08 2157.938,3282.724 2257.759,3273.412C2262.229,3259.654 2264.464,3248.861 2264.464,3241.034C2264.464,3210.102 2242.861,3194.635 2199.654,3194.635C2157.193,3194.635 2125.906,3215.68 2105.793,3257.769L1921.981,3220.336C1968.539,3115.672 2070.967,3063.341 2229.266,3063.341C2309.346,3063.341 2372.293,3077.215 2418.106,3104.964C2463.92,3132.713 2486.826,3173.591 2486.826,3227.599C2486.826,3251.809 2473.417,3337.476 2446.6,3484.601C2436.543,3539.353 2431.515,3575.669 2431.515,3593.547C2431.515,3608.073 2433.377,3624.648 2437.102,3643.272ZM2238.205,3375.096C2135.776,3382.917 2084.562,3415.694 2084.562,3473.427C2084.562,3505.086 2101.137,3520.916 2134.287,3520.916C2155.517,3520.916 2176.748,3511.418 2197.978,3492.423C2219.209,3473.427 2232.618,3434.318 2238.205,3375.096ZM2632.088,3078.985L2824.281,3078.985L2809.755,3166.142C2851.471,3096.863 2909.39,3062.224 2983.511,3062.224C3054.279,3062.224 3101.955,3096.863 3126.538,3166.142C3163.04,3098.725 3219.282,3065.017 3295.265,3065.017C3345.176,3065.017 3385.123,3079.078 3415.106,3107.199C3445.09,3135.314 3460.082,3173.204 3460.082,3220.868C3460.082,3236.139 3458.406,3254.576 3455.053,3276.179L3393.596,3643.272L3179.056,3643.272L3235.484,3308.61C3238.092,3291.477 3239.395,3278.254 3239.395,3268.943C3239.395,3236.165 3224.31,3219.777 3194.141,3219.777C3175.89,3219.777 3160.712,3226.668 3148.606,3240.449C3136.501,3254.23 3127.097,3280.675 3120.392,3319.784L3066.198,3643.272L2857.803,3643.272L2914.232,3308.61C2917.584,3288.125 2919.26,3273.598 2919.26,3265.032C2919.26,3247.898 2914.418,3235.607 2904.734,3228.157C2895.05,3220.708 2884.993,3216.983 2874.564,3216.983C2864.135,3216.983 2851.099,3221.363 2835.455,3230.122C2819.811,3238.875 2808.451,3265.046 2801.374,3308.636L2744.946,3643.272L2537.668,3643.272L2632.088,3078.985ZM4132.198,3402.472L3743.343,3402.472C3741.48,3417.819 3740.549,3429.234 3740.549,3436.718C3740.549,3461.423 3748.464,3480.701 3764.294,3494.553C3780.124,3508.404 3800.144,3515.329 3824.354,3515.329C3870.168,3515.329 3902.572,3491.491 3921.568,3443.816L4111.526,3474.544C4086.943,3529.838 4047.182,3574.578 3992.244,3608.763C3937.305,3642.943 3876.313,3660.033 3809.269,3660.033C3725.092,3660.033 3656.837,3636.102 3604.506,3588.24C3552.174,3540.378 3526.008,3475.103 3526.008,3392.415C3526.008,3302.651 3556.923,3225.643 3618.753,3161.393C3680.582,3097.142 3761.407,3065.017 3861.228,3065.017C3945.778,3065.017 4013.102,3089.932 4063.198,3139.761C4113.295,3189.59 4138.344,3255.778 4138.344,3338.326C4138.344,3356.92 4136.295,3378.302 4132.198,3402.472ZM3928.831,3294.084C3930.693,3282.538 3931.625,3273.598 3931.625,3267.266C3931.625,3247.153 3925.386,3229.647 3912.908,3214.749C3900.431,3199.85 3883.018,3192.401 3860.67,3192.401C3836.832,3192.401 3815.229,3201.433 3795.86,3219.498C3776.492,3237.562 3764.573,3262.424 3760.104,3294.084L3928.831,3294.084ZM4666.874,2880.646L4582.51,3385.152C4570.219,3460.39 4553.923,3515.05 4533.624,3549.131C4513.324,3583.211 4482.317,3609.936 4440.6,3629.304C4398.884,3648.672 4340.593,3658.356 4265.727,3658.356C4221.776,3658.356 4175.963,3653.328 4128.287,3643.272L4157.898,3466.722C4195.517,3473.054 4224.57,3476.22 4245.055,3476.22C4273.735,3476.22 4296.176,3470.729 4312.379,3459.747C4328.581,3448.765 4339.755,3435.086 4345.901,3418.709C4352.046,3402.326 4359.403,3367.501 4367.969,3314.232L4440.6,2880.646L4666.874,2880.646ZM4951.252,3660.033C4872.662,3660.033 4806.642,3636.66 4753.193,3589.916C4699.744,3543.171 4673.02,3479.386 4673.02,3398.561C4673.02,3301.347 4704.027,3221.453 4766.043,3158.879C4828.059,3096.304 4906.37,3065.017 5000.976,3065.017C5087.389,3065.017 5156.016,3089.507 5206.857,3138.486C5257.699,3187.465 5283.12,3247.898 5283.12,3319.784C5283.12,3426.682 5250.436,3510.115 5185.068,3570.082C5119.7,3630.049 5041.762,3660.033 4951.252,3660.033ZM4960.191,3522.592C4999.3,3522.592 5025.839,3493.54 5039.806,3435.435C5053.774,3377.33 5060.757,3328.723 5060.757,3289.614C5060.757,3230.02 5039.154,3200.222 4995.948,3200.222C4957.584,3200.222 4931.046,3229.927 4916.333,3289.335C4901.621,3348.744 4894.265,3397.257 4894.265,3434.876C4894.265,3493.354 4916.24,3522.592 4960.191,3522.592ZM5671.975,2862.768L5644.04,3028.702L5425.03,3028.702L5452.965,2862.768L5671.975,2862.768ZM5635.66,3078.985L5541.239,3643.272L5322.229,3643.272L5416.649,3078.985L5635.66,3078.985ZM5752.987,3078.985L5949.649,3078.985L5934.564,3170.629C5949.835,3133.004 5974.791,3105.532 6009.43,3088.212C6044.069,3070.886 6080.571,3062.224 6118.935,3062.224C6166.984,3062.224 6205.906,3074.89 6235.704,3100.224C6265.501,3125.552 6280.4,3158.893 6280.4,3200.249C6280.4,3216.265 6278.537,3235.447 6274.813,3257.795L6210.003,3643.272L5995.463,3643.272L6052.45,3304.141C6056.175,3282.538 6058.037,3268.198 6058.037,3261.121C6058.037,3229.461 6041.276,3213.631 6007.754,3213.631C5962.686,3213.649 5935.123,3243.824 5925.066,3304.158L5868.079,3643.272L5658.566,3643.272L5752.987,3078.985ZM6750.266,3078.985L6725.684,3223.129L6623.441,3223.129L6589.919,3424.235C6586.567,3443.976 6584.891,3456.453 6584.891,3461.668C6584.891,3489.248 6602.397,3503.038 6637.409,3503.038C6652.68,3503.038 6670.372,3500.803 6690.485,3496.333L6665.903,3643.272C6625.676,3651.838 6587.126,3656.122 6550.252,3656.122C6504.438,3656.122 6470.451,3650.348 6448.289,3638.802C6426.127,3627.256 6408.063,3610.867 6394.095,3589.636C6380.128,3568.406 6373.144,3540.471 6373.144,3505.831C6373.144,3491.305 6376.496,3464.115 6383.2,3424.261L6416.722,3223.129L6339.063,3223.129L6363.087,3078.985L6441.305,3078.985L6472.034,2911.933L6676.518,2908.022L6648.024,3078.985L6750.266,3078.985ZM1038.974,3713.287L6652.375,3723.785L6461.668,4858.812L1000.671,3941.256L1038.974,3713.287Z" style="fill:url(#_Linear1);"/>
        </g>
    </g>
    <defs>
        <linearGradient id="_Linear1" x1="0" y1="0" x2="1" y2="0" gradientUnits="userSpaceOnUse" gradientTransform="matrix(17.086032,-1646.08116,1646.08116,17.086032,4346.691981,4503.454544)"><stop offset="0" style="stop-color:white;stop-opacity:1"/><stop offset="0.65" style="stop-color:rgb(255,248,218);stop-opacity:1"/><stop offset="1" style="stop-color:rgb(255,204,6);stop-opacity:1"/></linearGradient>
    </defs>
</svg>
